<?xml version="1.0" standalone="no"?>
<!DOCTYPE svg PUBLIC "-//W3C//DTD SVG 1.1//EN" "http://www.w3.org/Graphics/SVG/1.1/DTD/svg11.dtd" >
<!--
2013-9-30: Created.
-->
<svg>
<metadata>
Created by iconfont
</metadata>
<defs>

<font id="iconfont" horiz-adv-x="1024" >
  <font-face
    font-family="iconfont"
    font-weight="500"
    font-stretch="normal"
    units-per-em="1024"
    ascent="896"
    descent="-128"
  />
    <missing-glyph />
    
    <glyph glyph-name="tuichudenglu" unicode="&#58909;" d="M960.512 356.288l-144.768-144.832-48.256 48.256 60.224 60.288H512V384h325.76l-70.272 70.272 48.256 48.256 144.768-144.768-0.704-0.768 0.704-0.704zM704 704a64 64 0 0 1-64 64H192a64 64 0 0 1-64-64v-640a64 64 0 0 1 64-64h448a64 64 0 0 1 64 64v64h64v-64a128 128 0 0 0-128-128H192a128 128 0 0 0-128 128V704a128 128 0 0 0 128 128h448a128 128 0 0 0 128-128v-128h-64V704z"  horiz-adv-x="1024" />

    
    <glyph glyph-name="password" unicode="&#58925;" d="M787.59 467.79v87.12c0 73.66-28.69 142.91-80.77 195-52.09 52.09-121.34 80.77-195 80.77s-142.91-28.69-195-80.77c-52.09-52.09-80.77-121.34-80.77-195v-87.12h-64.01v-532.01h682.05V467.79h-66.5z m-511.54 87.12c0 130 105.77 235.77 235.77 235.77s235.77-105.77 235.77-235.77v-87.12H276.05v87.12z m538.04-579.13H212.04V427.79h602.05v-452.01z"  horiz-adv-x="1024" />

    
    <glyph glyph-name="show" unicode="&#58928;" d="M958.74 374.39c-0.95 38.57-14.94 76.41-40.27 109.47-18.86 24.48-71.32 87-153.77 141.47-83.4 55.11-168.18 82.98-252 82.98-83.93 0-168.81-27.98-252.21-82.98-82.45-54.47-135.11-117.1-153.87-141.47l-0.11-0.21-0.11-0.21c-25.12-33.06-38.89-71.11-39.85-110.21v-4.03c0.95-38.36 14.73-76.09 39.85-109.15l0.11-0.21 0.11-0.21c18.76-24.37 71.32-87 153.77-141.47 83.4-55.11 168.18-82.98 252.11-82.98s168.81 27.98 252.21 83.08c82.45 54.47 135.01 116.99 153.77 141.47 25.43 33.06 39.32 71.21 40.27 110.53-0.01 0-0.01 4.13-0.01 4.13z m-45.25-3.07c-0.74-29.57-11.45-58.71-30.94-84.04-17.38-22.57-66.02-80.54-142.85-131.3-75.88-50.12-152.28-75.56-227.2-75.56-74.92 0-151.33 25.43-227.2 75.56-76.72 50.65-125.37 108.73-142.74 131.3v0.21c-19.39 25.43-29.99 54.15-30.63 82.87v1.7c0.74 29.46 11.23 58.5 30.73 84.04 17.38 22.57 66.13 80.64 142.96 131.3 75.88 50.12 152.39 75.56 227.31 75.56 74.82 0 151.22-25.43 227.1-75.56 76.72-50.65 125.47-108.73 142.85-131.3 19.5-25.33 30.2-54.05 30.94-83.08v-0.95l-0.33-0.75zM511.6 576.72c-106.61 0-193.29-86.69-193.29-193.29S405 190.14 511.6 190.14s193.29 86.69 193.29 193.29S618.2 576.72 511.6 576.72z m0-341.33c-81.6 0-148.04 66.44-148.04 148.04S430 531.47 511.6 531.47s148.04-66.44 148.04-148.04-66.45-148.04-148.04-148.04z"  horiz-adv-x="1024" />

    
    <glyph glyph-name="user" unicode="&#58929;" d="M884.79 96.17c-20.26 47.91-49.27 90.94-86.21 127.88-36.94 36.94-79.97 65.95-127.88 86.21-28.28 11.96-57.56 20.55-87.56 25.74 40.75 11.56 78.09 33.36 108.87 64.14 47.52 47.52 73.7 110.71 73.7 177.92S739.52 708.45 692 755.97c-47.52 47.52-110.71 73.69-177.92 73.69s-130.39-26.17-177.92-73.69c-47.52-47.52-73.7-110.71-73.7-177.92s26.17-130.39 73.7-177.92c30.77-30.77 68.12-52.58 108.87-64.14-30.01-5.18-59.28-13.78-87.56-25.74-47.91-20.26-90.94-49.27-127.88-86.21-36.94-36.94-65.95-79.97-86.21-127.88-20.99-49.61-31.63-102.31-31.63-156.61h40c0 199.79 162.54 362.33 362.33 362.33s362.33-162.54 362.33-362.33h40c0 54.31-10.64 107-31.62 156.62zM302.47 578.06c0 116.68 94.93 211.61 211.61 211.61S725.7 694.74 725.7 578.06s-94.93-211.61-211.61-211.61-211.62 94.92-211.62 211.61z"  horiz-adv-x="1024" />

    
    <glyph glyph-name="hide" unicode="&#58930;" d="M959.68 486.83c-7.93 7.69-20.59 7.5-28.28-0.43-36.17-37.28-228.71-222.05-467.3-198.21-101.39 10.14-188.97 55.47-198.62 60.61-64.65 34.4-120.84 80.8-167.02 137.9-6.95 8.59-19.54 9.92-28.13 2.98-8.59-6.94-9.92-19.54-2.98-28.13 47.42-58.64 104.69-106.76 170.33-143.16l-104.1-143.1c-6.5-8.93-4.52-21.44 4.41-27.94 3.55-2.58 7.67-3.83 11.75-3.83 6.18 0 12.28 2.86 16.19 8.24L273.98 300.3c37.43-16.82 107.93-44.08 186.13-51.9 10.72-1.07 21.32-1.75 31.84-2.07l-3.46-181.66c-0.21-11.04 8.57-20.17 19.62-20.38h0.39c10.87 0 19.78 8.71 19.99 19.62l3.49 182.87c79.53 4.25 152.46 27.94 214.94 58.27l104.26-133.48c3.94-5.05 9.83-7.69 15.78-7.69 4.3 0 8.64 1.38 12.3 4.24 8.71 6.8 10.25 19.37 3.45 28.07l-99.72 127.67c92.97 51.89 157.27 114.22 177.13 134.69 7.68 7.92 7.49 20.58-0.44 28.28z"  horiz-adv-x="1024" />

    
    <glyph glyph-name="qq" unicode="&#59032;" d="M505.6 754.4c121.6 12.8 300.8-76.8 307.2-294.4 0 0 51.2-38.4 32-121.6 0 0 115.2-134.4 70.4-262.4-6.4-32-32-38.4-76.8 51.2-12.8-32-51.2-102.4-64-115.2 0 0 51.2 0 57.6-51.2 19.2-25.6 12.8-51.2 6.4-51.2-12.8-32-153.6-115.2-300.8-12.8L492.8-103.2c0 0-108.8-89.6-256-32-76.8 32-51.2 83.2-44.8 89.6-6.4 19.2 12.8 44.8 57.6 57.6 0 0-44.8 44.8-64 108.8 0 0-38.4-70.4-70.4-64-32 6.4-25.6 192 76.8 275.2 0 0-25.6 44.8 0 70.4 0 0-6.4 32 25.6 51.2C224 453.6 224 741.6 505.6 754.4z"  horiz-adv-x="1024" />

    
    <glyph glyph-name="youxiang" unicode="&#58992;" d="M1024 694.84544c0-30.1056-9.33888-58.85952-27.99616-86.28224s-41.92256-50.85184-69.71392-70.28736c-143.23712-99.4304-232.40704-161.32096-267.40736-185.71264-3.85024-2.64192-11.91936-8.47872-24.33024-17.408-12.36992-8.99072-22.6304-16.19968-30.86336-21.77024-8.17152-5.48864-18.08384-11.6736-29.696-18.55488a175.14496 175.14496 0 0 0-32.84992-15.40096 90.68544 90.68544 0 0 0-28.59008-5.16096h-1.1264c-8.76544 0-18.28864 1.72032-28.59008 5.16096a174.55104 174.55104 0 0 0-32.84992 15.40096 652.10368 652.10368 0 0 0-29.71648 18.55488 1088.34816 1088.34816 0 0 0-30.86336 21.77024c-12.36992 8.92928-20.48 14.76608-24.28928 17.408a26320.09728 26320.09728 0 0 1-149.7088 104.28416c-65.14688 45.1584-104.18176 72.2944-117.1456 81.42848-23.61344 15.99488-45.91616 37.9904-66.8672 66.00704C10.46528 632.27904 0 658.28864 0 682.2912c0 29.71648 7.90528 54.4768 23.71584 74.28096 15.79008 19.80416 38.37952 29.71648 67.70688 29.71648h841.13408c24.76032 0 46.20288-8.97024 64.3072-26.86976C1014.94784 741.51936 1024 719.99488 1024 694.84544z m0-167.97696V73.1136c0-25.12896-8.94976-46.63296-26.86976-64.512-17.89952-17.92-39.424-26.89024-64.57344-26.89024H91.42272c-25.12896 0-46.65344 8.97024-64.55296 26.89024C8.94976 26.48064 0 48.00512 0 73.1136V526.86848a302.6944 302.6944 0 0 1 57.71264-49.72544c137.91232-93.71648 232.57088-159.41632 284.01664-197.14048a1341.8496 1341.8496 0 0 1 52.85888-37.43744c13.5168-8.92928 31.51872-18.08384 54.00576-27.40224 22.48704-9.35936 43.43808-14.00832 62.85312-14.00832h1.1264c19.41504 0 40.38656 4.64896 62.8736 14.00832 22.46656 9.3184 40.46848 18.47296 54.00576 27.40224a1398.76352 1398.76352 0 0 1 52.8384 37.43744c64.75776 46.83776 159.62112 112.59904 284.5696 197.14048A314.34752 314.34752 0 0 1 1024 526.86848z"  horiz-adv-x="1024" />

    
    <glyph glyph-name="github" unicode="&#58911;" d="M1024 371.2c0-114.346667-32.554667-217.216-97.706667-308.565333-65.066667-91.306667-149.162667-154.538667-252.288-189.610667-11.989333-2.304-20.778667-0.682667-26.325333 4.778667a27.605333 27.605333 0 0 0-8.362667 20.48v144.213333c0 44.16-11.52 76.501333-34.645333 97.024 25.344 2.730667 48.085333 6.826667 68.309333 12.288a268.629333 268.629333 0 0 1 62.72 26.666667 187.434667 187.434667 0 0 1 53.973334 45.44c14.421333 18.005333 26.197333 41.898667 35.328 71.765333 9.088 29.824 13.653333 64.128 13.653333 102.826667 0 55.125333-17.536 102.058667-52.650667 140.8 16.426667 41.429333 14.677333 87.893333-5.333333 139.392-12.458667 4.096-30.464 1.578667-54.016-7.509334a355.328 355.328 0 0 1-61.312-30.08L640 624.725333a462.336 462.336 0 0 1-128 17.749334c-43.989333 0-86.656-5.930667-128-17.749334a589.824 589.824 0 0 1-28.330667 18.432c-11.776 7.253333-30.336 16.042667-55.68 26.325334-25.344 10.24-44.416 13.312-57.301333 9.216-19.584-51.498667-21.12-97.962667-4.693333-139.434667-35.114667-38.698667-52.650667-85.632-52.650667-140.757333 0-38.698667 4.565333-72.874667 13.653333-102.485334 9.130667-29.610667 20.778667-53.546667 34.986667-71.765333 14.250667-18.218667 32.128-33.493333 53.674667-45.781333 21.546667-12.288 42.453333-21.205333 62.677333-26.666667 20.224-5.461333 43.008-9.557333 68.309333-12.288-17.749333-16.384-28.629333-39.850667-32.64-70.4a130.005333 130.005333 0 0 0-29.994666-10.24c-10.666667-2.261333-23.338667-3.413333-37.973334-3.413333-14.72 0-29.269333 4.906667-43.690666 14.677333-14.464 9.813333-26.794667 24.064-36.992 42.709333a109.226667 109.226667 0 0 1-32.341334 35.541334c-13.141333 9.130667-24.106667 14.592-33.024 16.426666l-13.312 2.048c-9.344 0-15.786667-1.024-19.328-3.072-3.584-2.090667-4.693333-4.693333-3.328-7.893333 1.28-3.157333 3.328-6.4 5.973334-9.557333 2.688-3.2 5.546667-5.930667 8.661333-8.192l4.693333-3.413334c9.770667-4.565333 19.413333-13.226667 29.013334-25.984 9.514667-12.757333 16.512-24.362667 20.992-34.858666l6.656-15.701334c5.76-17.322667 15.530667-31.317333 29.312-42.026666 13.781333-10.666667 28.672-17.536 44.672-20.48 16-2.986667 31.445333-4.565333 46.336-4.821334 14.890667-0.213333 27.221333 0.597333 36.992 2.389334l15.36 2.730666c0-17.28 0.085333-37.546667 0.298666-60.8l0.341334-36.906666a27.050667 27.050667 0 0 0-8.661334-20.48c-5.76-5.461333-14.677333-7.082667-26.666666-4.778667-103.125333 35.072-187.221333 98.261333-252.330667 189.610667C32.554667 153.941333 0 256.853333 0 371.2c0 95.232 22.869333 183.04 68.693333 263.466667A516.266667 516.266667 0 0 0 254.976 825.6C333.44 872.533333 419.114667 896 512 896c92.885333 0 178.56-23.466667 256.981333-70.4a516.266667 516.266667 0 0 0 186.368-190.976C1001.130667 554.197333 1024 466.346667 1024 371.157333z"  horiz-adv-x="1024" />

    
    <glyph glyph-name="lianjie" unicode="&#59539;" d="M463.177038 223.237573c5.865591-21.582551-3.476171-49.418526-20.426215-66.37164l-91.201142-91.200118c-25.182542-25.185612-66.017576-25.185612-91.202165 0l-68.399833 68.39881c-25.185612 25.183566-25.185612 66.019623 0 91.204212l91.201142 91.201142c17.854647 17.8526 43.572378 26.851555 66.00325 19.390629l70.800509 71.811536c-50.370201 50.368154-132.036175 50.368154-182.4074 0L100.743472 270.868383c-50.367131-50.368154-50.367131-132.032082 0-182.405353l114.003474-113.998357c50.367131-50.371224 132.032082-50.371224 182.40433 0l136.800689 136.804782c50.368154 50.367131 50.368154 132.031059 0 182.399213L463.177038 223.237573zM921.553747 681.274544 807.554366 795.278018c-50.367131 50.369178-132.033106 50.369178-182.400237 0L488.349347 658.476305c-50.368154-50.373271-50.368154-132.036175 0-182.403307l71.810512 70.799486c-7.457856 22.428825 1.540076 48.145533 19.390629 66.00325l91.202165 91.196025c25.185612 25.183566 66.016553 25.183566 91.201142 0l68.40188-68.399833c25.181519-25.180496 25.181519-66.014506 0-91.200118l-91.202165-91.200118c-16.947997-16.951067-44.788066-26.296923-66.373687-20.428262l-70.427002-70.774927c50.367131-50.369178 132.032082-50.369178 182.400237 0L921.553747 498.872261C971.925994 549.240415 971.925994 630.907413 921.553747 681.274544zM362.948289 236.670513c18.886139-18.889209 49.513694-18.889209 68.400856 0l228.002854 227.999784c18.890232 18.890232 18.890232 49.513694 0 68.400856-18.890232 18.889209-49.51267 18.889209-68.399833 0l-228.002854-228.000807C344.061127 286.184207 344.061127 255.556653 362.948289 236.670513z"  horiz-adv-x="1024" />

    
    <glyph glyph-name="iconfontpinglunhou" unicode="&#59028;" d="M921.879158 854.804762 104.019075 854.804762c-21.817911 0-39.509852-17.691941-39.509852-39.509852l0-634.576733c0-21.818935 17.691941-39.509852 39.509852-39.509852l461.317691 0 0-163.325809c0-16.553001 10.32209-31.359218 25.860994-37.078477 4.456498-1.639337 9.067516-2.430352 13.639648-2.430352 11.362792 0 22.434965 4.900613 30.085202 13.890358l160.903643 188.94428 126.052904 0c21.818935 0 39.509852 17.690918 39.509852 39.509852L961.38901 815.29491C961.38901 837.112822 943.699116 854.804762 921.879158 854.804762zM342.227362 457.80596c-10.736529-10.877745-25.821085-16.96744-41.046858-16.96744-15.083533 0-30.16809 6.089695-40.890292 16.96744-10.877745 10.735505-16.981766 25.678846-16.981766 41.046858 0 15.225773 6.105045 30.167067 16.981766 41.044812 10.721179 10.736529 25.663496 16.969487 40.890292 16.969487 15.381315 0 30.309306-6.231935 41.046858-16.969487 10.877745-10.877745 17.10968-25.819039 17.10968-41.044812C359.337041 483.483782 353.105107 468.541465 342.227362 457.80596zM553.853224 457.80596c-10.736529-10.877745-25.821085-16.96744-41.046858-16.96744-15.083533 0-30.16809 6.089695-40.890292 16.96744-10.877745 10.735505-16.981766 25.678846-16.981766 41.046858 0 15.225773 6.105045 30.167067 16.981766 41.044812 10.721179 10.736529 25.664519 16.969487 40.890292 16.969487 15.381315 0 30.309306-6.231935 41.046858-16.969487 10.877745-10.877745 17.10968-25.819039 17.10968-41.044812C570.962903 483.483782 564.730968 468.541465 553.853224 457.80596zM765.480108 457.80596c-10.736529-10.877745-25.821085-16.96744-41.046858-16.96744-15.083533 0-30.16809 6.089695-40.890292 16.96744-10.877745 10.735505-16.981766 25.678846-16.981766 41.046858 0 15.225773 6.105045 30.167067 16.981766 41.044812 10.721179 10.736529 25.664519 16.969487 40.890292 16.969487 15.381315 0 30.309306-6.231935 41.046858-16.969487 10.877745-10.877745 17.10968-25.819039 17.10968-41.044812C782.589788 483.483782 776.357853 468.541465 765.480108 457.80596z"  horiz-adv-x="1024" />

    
    <glyph glyph-name="shiguangwang" unicode="&#59805;" d="M826.257152 247.936c-0.8448 28.544 1.8688 57.1392-2.0736 85.76-1.5872 11.6736-8.2688 21.9136-22.272 30.4128-19.0208 11.5968-43.1616 14.5408-62.976 7.8592-12.0832-4.0448-19.6096-10.4704-27.4432-16.8448-7.6544-6.1696-7.6032-5.9136-14.0032 0.768-10.8032 11.392-26.9312 19.0208-49.6128 19.7376-22.0416 0.6912-37.0176-6.4512-47.6672-17.2288-1.2544-1.2288-1.1776-3.2768-5.9904-3.6352 0 4.3776-0.3328 8.6272 0.1024 12.8768 0.3584 3.712-2.304 4.7872-8.32 4.7104-11.4432-0.2048-22.9376-0.3328-34.3808 0.0256-8.2432 0.256-10.2656-1.7664-9.6768-6.0928 0.5376-3.6608 0.128-7.3472 0.128-11.0592 0-44.7232 0.256-89.5232-0.2816-134.2208-0.0768-6.3232 3.1744-7.9872 13.3376-7.4496 9.3952 0.512 18.9952 0.512 28.416 0.0256 9.6256-0.512 12.7232 1.1264 12.6464 7.04-0.4608 30.4384-0.2304 60.9024 0.1792 91.3408 0.1024 8.0896 2.2528 16.128 9.3696 23.2704 5.0944 5.1712 12.0576 9.7024 23.04 9.4976 11.8528-0.1792 17.7664-5.4528 21.7088-11.2128 6.0928-8.9344 7.4752-18.3296 7.5008-27.8272 0.1024-22.8352-0.1024-45.6448 0.128-68.5056 0.0768-7.552-5.4784-17.5616 2.0736-22.016 8.1664-4.8384 25.5232-0.768 38.7328-1.6128 9.8304-0.6144 11.5456 1.8176 11.4944 6.9376-0.4096 28.1344-0.2048 56.2688-0.1536 84.4288 0 7.8848 1.4848 15.6416 5.1456 23.2192a30.0032 30.0032 0 0 0 27.5968 16.6656 28.928 28.928 0 0 0 25.9584-17.7408c2.944-7.4752 3.5584-15.0784 3.5584-22.7072 0.0512-28.1088 0.2816-56.2432-0.1536-84.4032-0.0768-5.2736 2.56-6.8352 11.392-6.4512 10.1888 0.4608 20.5824 0.4096 30.7968 0.0256 8.8832-0.3584 12.5952 0.8192 12.0064 6.656-0.9984 9.2416-0.0256 18.5088-0.3072 27.7504zM397.815552 340.736c27.0848 1.6896 27.136 1.8176 28.16 17.5616 0.4096 6.4 5.6064 14.336-0.384 18.816-6.0928 4.5824-20.5824 2.3552-31.3856 3.1744l-1.1776 0.0768c-7.0656-0.1536-9.344 1.7408-9.2672 5.8624 0.1792 9.9072-0.8448 19.8144-0.6656 29.7472 0.0768 4.2752-2.3296 5.6064-9.5232 5.3504-12.6208-0.4352-25.3184-0.0512-37.9136-0.6144-8.5248-0.384-10.4448 1.408-10.624 6.1184-1.152 27.648-2.9184 55.2704-4.4032 82.9184-0.7424 14.1568-0.6656 14.1568-24.5504 13.0048-30.8224-1.4848-30.8224-1.4848-27.904-22.2208 3.84-36.1216 9.3952-75.1872 17.0496-114.0992 8.6528-43.9296 18.6112-87.7824 38.9632-130.56 7.0656-14.8736 14.8736-29.696 31.9488-42.0096 13.056-9.4208 28.8-9.984 43.8528-1.6128 11.3152 6.272 19.2 14.0032 26.4448 21.9648 1.7664 1.92 3.2512 3.5328-1.9968 4.8128-17.2032 4.3008-24.4992 13.312-29.824 22.912-13.0816 23.5264-10.3424 47.744-8.8576 71.9616 0.3328 5.1968 4.3008 6.3488 12.0576 6.8352zM992.605952 357.9904c-17.2544 17.8688-49.1264 25.9584-81.3568 20.5312-29.0304-4.864-45.5168-17.4592-53.8368-33.2288-17.0496-32.4608-18.4064-65.4848-1.7152-98.176 10.9568-21.4272 38.4768-32.4608 75.2128-31.8208 37.8368 0.6912 63.5904 12.7232 73.6 34.3296 7.04 15.2064 7.04 15.2064-19.968 15.1808-0.4096 0-0.7936-0.0256-1.2032 0-14.6432 1.3568-25.0368-0.3072-29.6704-10.2144-3.2768-7.0144-14.3872-9.9072-27.3408-9.3696-12.0576 0.512-17.9712 4.9664-21.8624 10.9824-4.9664 7.68-5.248 15.744-5.9648 23.808-0.3584 3.712 3.0976 4.0448 8.1152 4.0448 16.5888-0.128 33.2288-0.0768 49.8176-0.0768v0.0768c16.5888 0 33.2288 0.1024 49.8176-0.1024 6.1184-0.0512 8.448 1.1264 8.1152 4.7872-0.6912 8.0384-0.2048 16.1536-1.4336 24.192-2.304 15.6416-6.8096 31.0528-20.3264 45.056z m-40.6016-41.6512c-7.9104 0.1536-15.7952 0.0512-23.7056 0.0512h-11.8528c-18.9184 0-18.944 0-16.1536 10.8032 1.3056 5.0176 2.944 10.0096 7.5776 14.3872 10.496 10.0352 32.3072 10.0352 42.4448-0.1792 6.4768-6.528 8.2432-13.7984 8.6528-21.2736 0.1792-3.0976-2.0736-3.8656-6.9632-3.7888zM197.879552 311.168c-2.8928 9.8816-5.9392 19.6608-8.9344 29.4656l-2.816 0.128c-22.9632-25.8304-45.9264-51.7376-69.8112-78.5664l-74.2144 78.8992c-1.1008-2.7392-1.536-3.5072-1.7152-4.3008-9.5232-40.1664-18.944-80.384-28.672-120.576-1.2032-4.9664 2.944-5.12 9.3184-5.0432 65.2544 0.5376 130.5088 1.024 195.7632 1.3312 8.192 0.0512 9.8816 1.3056 8.4224 6.016-9.3952 30.8736-18.2528 61.7984-27.3408 92.6464zM515.114752 296.7552c0 24.0128-0.1536 48 0.1024 71.9616 0.0512 4.4032-1.024 6.8352-10.0864 6.6048-14.592-0.4352-29.2608-0.2816-43.8528-0.0512-6.4256 0.1024-8.0128-1.3568-8.0128-4.8128 0.1536-48.896 0.1536-97.7664 0-146.6624 0-3.8144 1.8176-5.3248 8.6784-5.2224a988.16 988.16 0 0 0 42.6752 0c8.3456-0.1792 10.752 1.4848 10.6752 6.272-0.384 23.936-0.1792 47.9232-0.1792 71.9104zM229.367552 522.7264a32743.168 32743.168 0 0 0-132.7616 1.3568c-6.144 0.0768-7.9616-0.9728-5.7344-4.352 3.1232-4.736 6.0672-9.4976 9.0624-14.2336 22.3232-35.1744 44.6208-70.3232 67.2768-106.112 1.6384 0.896 2.5344 1.1264 2.7392 1.5104 21.8624 39.1424 43.6224 78.3104 65.4848 117.4528 2.0224 3.6096-0.4608 4.3264-6.0672 4.3776zM66.705152 515.5328c1.28 4.2752-0.4608 5.7344-8.192 5.5552-15.3856-0.3328-30.848-0.4608-46.208 0.0512-9.984 0.3328-12.3648-1.536-12.2624-7.2192 1.2032-64.512 1.9456-129.024 2.8928-193.5616 0.0256-2.1248-0.9472-4.4544 2.3808-7.1936 3.5072 2.9696 3.7632 5.7856 4.5568 8.4224 9.9584 34.2528 19.8144 68.5056 29.8496 102.784 8.8832 30.4128 17.8432 60.8 26.9824 91.1616zM459.562752 480.3328a33.28 33.28 0 0 1-0.1024-51.7376 36.9664 36.9664 0 0 1 46.6432 0.2304c8.8832 7.4496 11.4944 16 12.1344 25.4464-0.3072 8.9856-2.7904 18.2784-12.7744 26.2144a36.5568 36.5568 0 0 1-45.9008-0.1536z"  horiz-adv-x="1024" />

    
    <glyph glyph-name="guanyu" unicode="&#58898;" d="M704 751.616c19.456-8.704 28.16-31.232 19.456-50.688-8.704-19.456-31.744-28.16-51.2-19.456-50.688 23.04-105.472 34.816-160.768 35.328-209.408 2.56-381.44-165.376-384-375.296v-4.096c0-210.944 171.52-380.928 384-380.928s384 170.496 384 380.928c0 96.256-36.864 189.44-102.4 260.096-13.824 15.872-12.288 40.448 3.584 54.784 15.36 13.312 38.4 12.8 52.736-2.048 79.36-83.968 123.904-195.072 123.904-310.784 0-252.928-205.312-456.704-459.776-456.704S51.2 83.968 51.2 336.896 256.512 793.6 510.976 793.6c66.56 0.512 132.608-14.336 193.024-41.984z m-235.52-625.664c0-21.504 17.408-38.912 38.912-38.912s38.912 17.408 38.912 38.912V410.112c0 21.504-17.408 38.912-38.912 38.912s-38.912-17.408-38.912-38.912v-284.16z m37.376 475.648c-29.184 0-52.736-23.552-53.248-52.736-0.512-28.672 22.528-52.224 51.2-52.736h2.048c29.184 0 52.736 23.552 53.248 52.736 0.512 28.672-22.528 52.224-51.2 52.736h-2.048z"  horiz-adv-x="1024" />

    
    <glyph glyph-name="weizhi" unicode="&#59082;" d="M509.55332267 851.14368C312.59579732 851.14368 152.64426667 697.003008 152.64426667 507.69134933c0-62.69610667 17.73841068-124.16887466 51.99189333-178.60744533l280.14455467-392.69171199c5.505024-8.257536 14.680064-13.15089067 24.772608-13.15089068 9.78670933 0 19.267584 4.89335467 24.772608 13.15089068l281.06205866 393.91505064c33.64181333 53.52106667 51.380224 114.68800001 51.38022401 177.38410668C866.46237867 697.003008 706.20501333 851.14368 509.55332267 851.14368z m0-535.21066668c-98.47876267 0-178.30161067 79.822848-178.30161068 178.60744534 0 98.47876267 79.822848 178.30161067 178.30161068 178.30161067 98.47876267 0 178.60744534-79.822848 178.60744533-178.30161067-0.30583466-98.78459734-80.12868267-178.60744534-178.60744533-178.60744534z m0 0"  horiz-adv-x="1024" />

    
    <glyph glyph-name="touxiang" unicode="&#58884;" d="M511.409912 384.590088m-511.409912 0a511.409912 511.409912 0 1 1 1022.819823 0 511.409912 511.409912 0 1 1-1022.819823 0ZM506.885901 161.53668800000003a219.51287 219.51287 0 0 1 219.709566 219.316174V384.590088a215.185555 215.185555 0 0 1-210.858241 219.51287h-7.474452A217.545909 217.545909 0 0 1 287.176335 390.09758V384.590088a219.709566 219.709566 0 0 1 216.365732-223.0534zM421.716481 200.48252000000002h179.386861v-134.540146h-179.386861zM725.808682 320.073761c-33.044948 0-15.342297 13.375336-15.342297 46.420284s-17.702651 73.170957 15.342297 73.170957 41.306185-26.750672 41.306185-59.008836-8.261237-60.582405-41.306185-60.582405z m-427.81406 0c-33.044948 0-40.716097 26.750672-40.716097 59.008836s7.671149 59.008836 40.716097 59.008836 15.538993-39.339224 15.538993-73.170957 17.505955-44.846715-15.538993-44.846715zM361.920861 95.84018400000002h298.978102A224.036881 224.036881 0 0 0 885.132539-128H137.687284a224.036881 224.036881 0 0 0 223.840184 224.233577zM275.374568 524.44103q-104.839032 102.085286-68.843642 148.702266C236.035344 699.3038799999999 308.616212 643.835574 479.151748 723.300807q129.819439 59.008836 157.356896-105.232424c4.130619-21.046485 21.439877-25.767192 51.927776-14.555513 45.830196 16.915866 118.017672-36.585478 29.111025-226.987323q-41.306185 172.305801-211.841721 165.224741c-170.535536-7.08106-196.69612-159.323857-200.630042-151.259316a184.697657 184.697657 0 0 0-10.031502 61.172493v29.89781a59.008836 59.008836 0 0 1-19.669612 42.879755z"  horiz-adv-x="1024" />

    
    <glyph glyph-name="touxiang1" unicode="&#59009;" d="M26.6 384c0-268.1 217.3-485.4 485.4-485.4S997.4 115.89999999999998 997.4 384 780.1 869.4 512 869.4 26.6 652.1 26.6 384zM512 160.70000000000005c127 0 241.3-54.2 321.1-140.7-17.5-26.6-150.7-121.8-320.1-121.4S202.1-0.10000000000002274 190.9 20C270.7 106.5 385 160.70000000000005 512 160.70000000000005zM512 286.9c42.9 0 77.7-34.8 77.7-77.7v-77.7c0-42.9-34.8-77.7-77.7-77.7-42.9 0-77.7 34.8-77.7 77.7v77.7c0 42.9 34.8 77.7 77.7 77.7zM279 384V571.6c0 52 52.7 103.7 105.8 103.7h254.5c53.1 0 105.8-51.6 105.8-103.7V384H279zM240.2 364.6c0-37.5 30.4-68 68-68s68 30.4 68 68-30.4 68-68 68-68-30.5-68-68zM647.9 364.6c0-37.5 30.4-68 68-68 37.5 0 68 30.4 68 68s-30.4 68-68 68c-37.6-0.1-68-30.5-68-68zM512 607.3c107.2 0 194.2-86.9 194.2-194.2v-77.7c0-107.2-86.9-194.2-194.2-194.2s-194.2 86.9-194.2 194.2v77.7c0 107.3 87 194.2 194.2 194.2zM512 563.2c77.2 0 139.7 34.9 139.7 78v98.2c-64.4-13.4-111-20.2-139.7-20.2-77.2 0-139.7-34.9-139.7-78s62.5-78 139.7-78z"  horiz-adv-x="1024" />

    
    <glyph glyph-name="touxiang2" unicode="&#58958;" d="M0.02048 385.444464c0-281.949189 228.565502-510.514692 510.555536-510.514692 281.949189 0 510.514692 228.565502 510.514692 510.535114C1021.090708 667.434498 792.525206 896 510.576016 896 228.585982 896 0.02048 667.434498 0.02048 385.444464zM449.636107-121.33296199999995c-9.3738 1.021111-18.543377 2.552778-27.733376 4.084445 9.19-1.531667 18.379999-2.879533 27.733376-4.084445z m220.72337 21.953888l-19.237733-5.942866c6.473844 1.858422 12.600511 3.737267 19.237733 5.942866z m-123.758662-24.343287c-12.253333 0-24.853844-1.347867-37.617732-1.347867h1.572511c36.555776 0 73.029864 3.941489 108.748329 11.742777-23.179221-4.901333-46.664776-8.332266-70.293286-10.211111l-2.409822-0.183799z m96.80133 15.663843l-15.582155-3.921066 15.602577 3.921066z m49.871064 17.011711c-3.573889-1.347867-7.147778-2.879533-10.885044-4.084444a83.322664 83.322664 0 0 1 10.946311 4.084444h-0.061267z m-191.049881-34.983266l-23.485555 1.715467 23.485555-1.715467z m144.466794 19.339844l4.595 1.368289-7.637911-2.226022 3.063333 0.857733z m23.669355 7.311155c4.084444 1.368289 8.168889 2.552778 12.069533 4.084445-3.900644-1.531667-7.985089-2.716155-12.069533-4.084445z m-50.218243-13.88711l4.942178 1.123222h2.736578l-8.516067-2.042222 0.837311 0.919z m-219.681836 0.265489c7.147778-1.531667 14.275133-3.063333 21.422911-4.247822-7.147778 1.204911-13.437822 2.736578-21.443333 4.247822z m55.139998-9.19h2.593622c6.290044 0 12.600511-1.021111 18.890555-1.368289h1.695044c-9.700555 0-19.40111 1.531667-29.101665 2.716156l5.922444-1.347867zM581.012258 339.86206500000003h-143.997083c-157.761661-68.067264-204.222215-104.827263-223.419103-121.389684-26.38551-23.608088-43.397221-120.450262-59.224442-198.544837 63.308886-61.675109 141.628106-105.787107 227.197213-127.986062 6.290044-1.695044 12.580088-3.063333 18.890555-4.431622 6.290044-1.368289 14.275133-3.063333 21.422911-4.247822 7.147778-1.184489 18.379999-3.063333 27.733376-4.084444 9.3738-1.021111 19.40111-2.042222 29.101666-2.716156l23.485554-0.857733h6.8006c12.763888 0 25.364399 0 37.617732 1.368289h2.368978a548.908468 548.908468 0 0 1 70.293286 10.211111l8.516066 1.878844 15.643422 3.900644 7.658333 2.226023 19.237733 5.942866c4.084444 1.368289 8.168889 2.552778 12.069533 4.084444 3.921067 1.531667 7.331578 2.716155 10.885044 4.084445a508.166136 508.166136 0 0 1 168.830504 106.706107c-17.01171 78.78893-31.817821 180.042304-59.38782 204.222214-18.870133 15.827222-63.98282 51.566109-221.724058 119.633373zM584.402347 477.017705c0 93.595041-153.166661 93.595041-153.166661 0v-172.894527a96.658374 96.658374 0 0 1 153.166661 0v172.894527zM584.402347 477.017705c0 93.595041-153.166661 93.595041-153.166661 0v-115.548929a148.816728 148.816728 0 0 1 76.58333-33.022732 146.468172 146.468172 0 0 1 76.583331 33.022732v115.548929zM508.513372 261.073135l-59.510353-56.161109-78.788931 108.29904 54.282265 28.917866 84.017019-81.076219z m0 0l59.38782-56.161109 78.78893 108.29904-54.282264 28.917866-83.894486-81.076219zM707.282853 111.99091799999997v-198.095548c8.842822 3.573889 17.01171 7.494955 25.854533 11.5794l-25.854533 186.516148z m-419.676651-186.005592c7.147778-3.410511 14.663155-6.473844 21.974311-9.516756v196.706837l-21.953888-187.190081zM508.513372 775.345516c256.625635 0 164.56226-307.844566 147.36675-332.371654-18.196199-27.222821-105.664574-98.516796-147.36675-98.516797s-129.170551 71.293975-147.570972 98.516797c-18.400422 27.243243-109.054663 332.371654 147.570972 332.371654zM311.275557 572.654968c-13.070222-4.595-18.379999-26.712266-10.374488-49.973176 7.985089-23.281332 24.670044-38.475465 38.291665-34.043843 13.601199 4.431622 18.196199 27.569999 10.374488 49.993598-7.842133 22.423599-24.670044 38.434621-38.291665 34.023421z m393.801696 0c13.070222-4.595 18.196199-26.712266 10.211111-49.973176-8.005511-23.281332-24.506666-38.475465-38.291665-34.043843-13.805422 4.431622-17.032133 26.712266-10.211111 49.993598 6.8006 23.26091 24.506666 38.434621 38.291665 34.023421zM391.432776 672.723853c44.030309-31.307265 196.543459-26.181288 230.93448-1.184489 25.180599-69.782731 45.092265-94.616152 54.282265-153.166661 12.600511 36.249443 42.171887 229.566191-53.036509 249.988413-86.447263 61.266664-220.151547 24.506666-260.893879-27.059443-50.19782-64.656753-32.491754-162.683416-20.585599-236.550592-2.9408 94.799952 33.941732 87.304997 49.135865 167.972772h0.163377zM458.193018-124.25333899999998c6.290044 0 12.600511-1.531667 18.890555-2.042222l-18.890555 2.042222z m166.951661 11.518133l-4.942178-2.042222 4.942178 2.042222z m21.60671 6.044977l-21.443333-6.044977c6.923133 1.899267 14.091333 4.533733 21.382066 6.044977h0.061267z m-143.159772-21.23911a123.064306 123.064306 0 0 0-26.548888 1.980955l26.548888-1.960533z m6.963977 0.306333c12.253333 0 24.506666 0 36.596621 2.042222-12.416711 0-24.996799-2.042222-37.944488-2.042222h1.347867z"  horiz-adv-x="1024" />

    
    <glyph glyph-name="huifu" unicode="&#58919;" d="M480.512-25.6L51.2 384 480.512 793.6v-222.464C766.1056 557.7472 972.8 370.688 972.8 133.4784v-59.776l-51.5072 34.048c-60.16 39.7312-137.5744 64.256-232.0384 76.9024-55.0144 7.3984-102.784 10.24-175.7952 11.1104l-32.9472 0.256V-25.6zM144.0256 384l270.848-258.4064v133.1456h56.1152l22.7072-0.128c80.5888-0.5632 132.352-2.944 189.568-9.984l15.1296-1.92c77.44-10.3936 145.408-28.3392 203.904-55.9104-31.4368 182.144-211.8912 318.464-454.6048 318.464h-32.8192V642.4064L144.0256 384z"  horiz-adv-x="1024" />

    
    <glyph glyph-name="guanbi" unicode="&#58980;" d="M566.211765 402.070588l385.505882 385.505883c18.070588 18.070588 18.070588 54.211765 0 72.282353-18.070588 18.070588-54.211765 18.070588-72.282353 0L493.929412 474.352941 108.423529 859.858824C90.352941 877.929412 60.235294 877.929412 36.141176 859.858824c-18.070588-24.094118-18.070588-54.211765 0-72.282353L421.647059 402.070588 36.141176 16.564706c-18.070588-18.070588-18.070588-54.211765 0-72.282353 18.070588-18.070588 54.211765-18.070588 72.282353 0l385.505883 385.505882 385.505882-385.505882c18.070588-18.070588 54.211765-18.070588 72.282353 0 18.070588 18.070588 18.070588 54.211765 0 72.282353L566.211765 402.070588z"  horiz-adv-x="1024" />

    
    <glyph glyph-name="fuzhi" unicode="&#58969;" d="M741.888 445.44l-269.312 2.048c-14.336 0-26.112-13.824-26.112-31.232s11.776-31.232 26.112-31.232l269.312-2.048c14.336 0 26.112 13.824 26.112 31.232 0 16.896-11.776 31.232-26.112 31.232z m0-126.976l-269.312 2.048c-14.336 0-26.112-13.824-26.112-31.232s11.776-31.232 26.112-31.232l269.312-2.048c14.336 0 26.112 13.824 26.112 31.232s-11.776 30.72-26.112 31.232zM736.256 832H416.768c-70.656 0-128-57.344-128-128H224.256c-70.656 0-128-57.344-128-128v-512c0-70.656 57.344-128 128-128h384c70.656 0 128 57.344 128 128h65.024c70.656 0 128 57.344 128 128V640l-193.024 192z m0-63.488l128-128.512h-64c-35.328 0-64 28.672-64 64V768.512z m-128-768h-384c-35.328 0-64 28.672-64 64V576C160.256 611.328 189.44 640 224.256 640h64.512v-448c0-70.656 57.344-128 128-128h254.976c0-34.816-28.672-63.488-63.488-63.488z m256 190.976c0-35.328-28.672-64-64-64h-384c-35.328 0-64 28.672-64 64V704.512c0 35.328 28.672 64 64 64h254.976v-63.488c0-70.656 57.344-128 128-128h65.024v-385.536z"  horiz-adv-x="1024" />

    
    <glyph glyph-name="yonghu" unicode="&#58967;" d="M902.073578 52.995237c-21.37789 54.960753-52.02591 104.361883-91.082438 146.82602-39.269375 42.694381-85.068468 76.247568-136.134517 99.737562-9.700943 4.459568-19.513426 8.513908-29.426193 12.168134 21.951965 12.276604 42.351574 27.578102 60.673871 45.680389 53.16178 52.53654 82.434477 122.382305 82.434477 196.678428 0 74.2951-29.271674 144.139841-82.434477 196.671265C652.941498 803.292552 582.261739 832.224488 507.078409 832.224488c-75.181283 0-145.861042-28.931936-199.022823-81.468476-53.157687-52.5304-82.435501-122.376165-82.435501-196.671265 0-74.296123 29.277814-144.141888 82.435501-196.678428 18.323321-18.101263 38.727023-33.403784 60.672848-45.680389-9.912767-3.65832-19.723204-7.707542-29.42517-12.168134-51.066049-23.489994-96.865141-57.043181-136.133493-99.737562-39.058574-42.469254-71.332628-91.272773-91.083461-146.82602-16.479323-46.352701-14.757099-92.137467-15.594163-113.518427l66.207911 0c-2.185782 152.698774 144.750755 331.47139 344.379375 331.47139 199.63169 0 350.428138-185.315636 351.007329-331.47139l66.207911 0C923.113777-19.197992 924.141176-3.734812 902.073578 52.995237L902.073578 52.995237zM291.845393 554.084747c0 117.2801 96.554056 212.695217 215.234039 212.695217 118.68203 0 215.236086-95.415117 215.236086-212.695217 0-117.281123-96.554056-212.697263-215.236086-212.697263C388.399449 341.387483 291.845393 436.803623 291.845393 554.084747L291.845393 554.084747zM291.845393 554.084747"  horiz-adv-x="1024" />

    
    <glyph glyph-name="wodefashe" unicode="&#59083;" d="M93.090909 430.545455l204.8-144.29091L628.363636 477.090909l-228.072727-251.345454 9.309091-218.763637 116.363636 107.054546 181.527273-134.981819L930.909091 756.363636z"  horiz-adv-x="1024" />

    
    <glyph glyph-name="xiepinglun" unicode="&#58910;" d="M899.657143 435.2h95.085714v-387.657143c0-80.457143-65.828571-146.285714-146.285714-146.285714H168.228571c-80.457143 0-146.285714 65.828571-146.285714 146.285714V727.771429c0 80.457143 58.514286 146.285714 146.285714 146.285714h387.657143v-95.085714H168.228571c-21.942857-7.314286-43.885714-29.257143-43.885714-51.2v-680.228572c0-21.942857 21.942857-51.2 51.2-51.2h680.228572c21.942857 0 51.2 21.942857 51.2 51.2V435.2h-7.314286z m7.314286 424.228571c21.942857 21.942857 51.2 21.942857 73.142857 0s21.942857-51.2 0-73.142857l-431.542857-438.857143c-21.942857-21.942857-51.2-21.942857-73.142858 0s-21.942857 51.2 0 73.142858l431.542858 438.857142z"  horiz-adv-x="1024" />

    
    <glyph glyph-name="aixin" unicode="&#59563;" d="M667.786667 778.666667C832.864 778.666667 938.666667 646.293333 938.666667 468.138667c0-138.250667-125.098667-290.506667-371.573334-461.589334a96.768 96.768 0 0 0-110.186666 0C210.432 177.632 85.333333 329.888 85.333333 468.138667 85.333333 646.293333 191.136 778.666667 356.213333 778.666667c59.616 0 100.053333-20.832 155.786667-68.096C567.744 757.824 608.170667 778.666667 667.786667 778.666667z m0-63.146667c-41.44 0-70.261333-15.189333-116.96-55.04-2.165333-1.845333-14.4-12.373333-17.941334-15.381333a32.32 32.32 0 0 0-41.770666 0c-3.541333 3.018667-15.776 13.536-17.941334 15.381333-46.698667 39.850667-75.52 55.04-116.96 55.04C230.186667 715.52 149.333333 614.741333 149.333333 469.301333 149.333333 358.4 262.858667 220.757333 493.632 61.173333a32.352 32.352 0 0 1 36.736 0C761.141333 220.746667 874.666667 358.4 874.666667 469.301333c0 145.44-80.853333 246.218667-206.88 246.218667z"  horiz-adv-x="1024" />

    
    <glyph glyph-name="aixin1" unicode="&#59587;" d="M667.786667 778.666667C832.864 778.666667 938.666667 646.293333 938.666667 468.138667c0-138.250667-125.098667-290.506667-371.573334-461.589334a96.768 96.768 0 0 0-110.186666 0C210.432 177.63199999999995 85.333333 329.88800000000003 85.333333 468.138667 85.333333 646.293333 191.136 778.666667 356.213333 778.666667c59.616 0 100.053333-20.832 155.786667-68.096C567.744 757.8240000000001 608.170667 778.666667 667.786667 778.666667z"  horiz-adv-x="1024" />

    
    <glyph glyph-name="biaoqian" unicode="&#58881;" d="M569.427 619.384c-49.018-49.052-49.018-128.888 0-177.975 24.020-23.953 55.8-36.874 88.76-36.874 9.514 0 19.095 1.080 28.642 3.273 22.94 5.297 43.891 16.936 60.59 33.635l0.034 0.034c17.071 17.105 28.777 38.526 33.905 62.007 9.21 42.119-3.475 85.471-33.939 115.917-49.052 49.053-128.94 49.103-177.992-0.016zM713.885 518.226c-2.328-10.526-7.625-20.208-15.35-27.967-7.523-7.523-16.936-12.752-27.225-15.114-19.398-4.521-39.101 1.248-53.033 15.147-22.097 22.131-22.097 58.128 0 80.242 11.065 11.065 25.606 16.598 40.146 16.598s29.080-5.516 40.146-16.582c13.73-13.746 19.464-33.313 15.315-52.324zM956.212 471.029l-17.475 234.651c-4.15 56.289-49.761 101.799-106.067 105.847l-233.893 16.819c-42.339 3.036-84.441-12.532-114.669-42.777l-373.661-373.645c-57.419-57.419-57.419-150.868 0-208.287l221.208-221.208c27.798-27.832 64.807-43.149 104.144-43.149 39.336 0 76.345 15.316 104.144 43.149l373.525 373.526c30.329 30.329 45.915 72.297 42.743 115.074zM864.618 404.806l-373.526-373.527c-30.498-30.498-80.090-30.498-110.587 0l-221.208 221.208c-30.498 30.498-30.498 80.090 0 110.587l373.695 373.661c14.675 14.709 34.546 22.89 55.226 22.89 1.855 0 3.744-0.068 5.634-0.203l233.859-16.817c22.367-1.602 40.483-19.668 42.137-42.035l17.475-234.669c1.686-22.704-6.579-44.97-22.705-61.095z"  horiz-adv-x="1024" />

    
    <glyph glyph-name="shijian" unicode="&#59006;" d="M512 763.4c-209.6 0-379.4-169.9-379.4-379.4S302.4 4.6 512 4.6 891.4 174.4 891.4 384 721.6 763.4 512 763.4z m0-699c-176.4 0-319.6 143-319.6 319.6S335.6 703.6 512 703.6s319.6-143 319.6-319.6S688.4 64.4 512 64.4zM701.7 364.1H531.9V553.8c0 16.5-13.4 29.9-29.9 29.9s-29.9-13.4-29.9-29.9v-219.7c0-16.5 13.4-29.9 29.9-29.9h199.7c16.5 0 29.9 13.4 29.9 29.9 0.1 16.6-13.4 30-29.9 30z"  horiz-adv-x="1024" />

    
    <glyph glyph-name="biaoqian1" unicode="&#58893;" d="M773.5-63.8c-5.8 0-11.5 1.8-16.4 5.3L512 118.6l-245.1-177c-8.5-6.2-19.8-7-29.1-2.2-9.4 4.8-15.2 14.4-15.2 24.9V803.8c0 15.5 12.5 28 28 28h523c15.5 0 28-12.5 28-28v-839.6c0-10.5-5.9-20.1-15.2-24.9-4.2-2.1-8.6-3.1-12.9-3.1zM512 181.1c5.7 0 11.5-1.8 16.4-5.3L745.5 19V775.8h-467v-756.9l217.1 156.8c4.9 3.6 10.7 5.4 16.4 5.4z"  horiz-adv-x="1024" />

    
    <glyph glyph-name="comment" unicode="&#58897;" d="M870.40512 18.416384l-76.821504 0 0-8.384512c0-0.052224 0-0.052224 0-0.052224L793.583616-160.8 574.575616 18.416384 328.704 18.416384l80.927744 51.196928 102.393856 0 76.76928 0 153.590784-128.019456 0 76.821504 0 51.196928 128.019456 0c28.280832 0 51.196928 22.916096 51.196928 51.196928L921.602048 427.992832c0 28.280832-22.916096 51.197952-51.196928 51.197952l-51.196928 0 0 51.196928 51.196928 0c56.561664 0 102.39488-45.832192 102.39488-102.39488L972.8 120.81024C972.8 64.248576 926.966784 18.416384 870.40512 18.416384zM665.617408 172.007168 486.401024 172.007168l-123.331584-76.76928-132.65408-76.821504L230.41536 163.621632l0 0 0 8.384512-8.905728 0-16.718848 0-51.197952 0c-56.561664 0-102.393856 45.88544-102.393856 102.39488L51.198976 658.406144C51.2 714.967808 97.032192 760.8 153.593856 760.8l512.023552 0c56.56064 0 102.393856-45.832192 102.393856-102.393856l0-384.004096C768.011264 217.891584 722.178048 172.007168 665.617408 172.007168zM716.814336 658.406144c0 28.280832-22.916096 51.196928-51.196928 51.196928L153.593856 709.603072c-28.280832 0-51.196928-22.916096-51.196928-51.196928l0-384.004096c0-28.281856 22.916096-51.197952 51.196928-51.197952l128.019456 0L281.613312 106.72l191.976448 116.484096 192.028672 0c28.280832 0 51.196928 22.916096 51.196928 51.197952L716.81536 658.406144zM550.41024 427.992832c-21.1968 0-38.38464 17.23904-38.38464 38.436864s17.18784 38.38464 38.38464 38.38464c21.197824 0 38.38464-17.18784 38.38464-38.38464S571.608064 427.992832 550.41024 427.992832zM396.819456 427.992832c-21.197824 0-38.436864 17.23904-38.436864 38.436864s17.23904 38.38464 38.436864 38.38464 38.38464-17.18784 38.38464-38.38464S418.016256 427.992832 396.819456 427.992832zM243.227648 427.992832c-21.197824 0-38.436864 17.23904-38.436864 38.436864s17.23904 38.38464 38.436864 38.38464c21.197824 0 38.38464-17.18784 38.38464-38.38464S264.425472 427.992832 243.227648 427.992832z"  horiz-adv-x="1024" />

    
    <glyph glyph-name="gengduo" unicode="&#58896;" d="M256 320c-35.2 0-64 28.8-64 64s28.8 64 64 64 64-28.8 64-64-28.8-64-64-64z m256 0c-35.2 0-64 28.8-64 64s28.8 64 64 64 64-28.8 64-64-28.8-64-64-64z m256 0c-35.2 0-64 28.8-64 64s28.8 64 64 64 64-28.8 64-64-28.8-64-64-64z"  horiz-adv-x="1024" />

    
    <glyph glyph-name="liulan" unicode="&#59039;" d="M512 721.92c133.20704 0 248.21248-48.41472 334.78656-129.80224C917.53472 525.60896 962.56 440.86272 962.56 382.6688c0-58.18368-45.02528-142.92992-115.77344-209.43872-86.5792-81.39264-201.5744-129.80736-334.78656-129.80736-133.20704 0-248.21248 48.41472-334.78656 129.80736C106.46528 239.744 61.44 324.49024 61.44 382.6688c0 58.1888 45.02528 142.92992 115.77344 209.44384C263.79264 673.50528 378.78784 721.92 512 721.92z m2.64192-71.28064c-98.57536 0-195.23584-35.72736-270.76096-95.08864-68.82304-54.0928-111.09376-121.62048-111.09376-175.5136 0-53.89824 42.27072-121.42592 111.09376-175.51872 75.52-59.36128 172.1856-95.08864 270.76096-95.08864 98.58048 0 195.23584 35.72736 270.76096 95.08864 68.82816 54.0928 111.09376 121.62048 111.09376 175.5136 0 53.89824-42.2656 121.42592-111.09376 175.51872-75.52 59.36128-172.1856 95.08864-270.76096 95.08864zM512 547.67616c91.21792 0 165.16096-73.87136 165.16096-165.00224 0-91.12576-73.94304-165.00224-165.16096-165.00224-91.21792 0-165.16096 73.87648-165.16096 165.00224 0 91.13088 73.94304 165.00224 165.16096 165.00224z m0-71.28064c-54.79424 0-99.0976-43.20768-99.0976-96.3584 0-53.15584 44.30336-96.36352 99.0976-96.36352s99.0976 43.20768 99.0976 96.3584c0 53.15584-44.30336 96.36352-99.0976 96.36352z"  horiz-adv-x="1024" />

    
    <glyph glyph-name="html1" unicode="&#59023;" d="M703.547571 895.653099H193.518458c-22.605857 0-40.932248-18.326391-40.932247-40.932248v-165.338652H73.234955c-22.605857 0-40.932248-18.326391-40.932248-40.932248v-225.127364c0-22.605857 18.326391-40.932248 40.932248-40.932248h79.351256v-469.11119c0-22.605857 18.326391-40.932248 40.932247-40.932248h757.246587c22.605857 0 40.932248 18.326391 40.932248 40.932248V607.251643L703.547571 895.653099z m9.945513-238.938927V832.301236l216.519312-216.519312H728.842677c-8.477069 0-15.349593 6.872524-15.349593 15.349593v25.582655z m-599.176479-132.594901v-31.764448c0-10.642384 0.327458-16.864086 1.309832-24.23189h-35.201733c0.982374 6.712889 1.309832 12.770861 1.309832 24.23189v87.760787c0 11.2973-0.327458 17.191544-1.309832 24.232914h35.201733c-0.982374-7.696286-1.309832-14.080693-1.309832-24.232914v-27.180036h55.177694v27.180036c0 11.2973-0.327458 17.84646-1.309832 24.232914h35.202756c-0.982374-6.713912-1.309832-12.770861-1.309831-24.232914v-87.760787c0-10.642384 0.327458-16.20917 1.309831-24.23189H168.184467c0.982374 6.876618 1.309832 12.93459 1.309832 24.23189v31.764448h-55.177694z m840.541665-574.001099v-25.582655c0-8.477069-6.872524-15.349593-15.349593-15.349593h-734.73385c-8.477069 0-15.349593 6.872524-15.349593 15.349593V382.390339h415.928944c22.605857 0 40.932248 18.326391 40.932248 40.932248v225.127364c0 22.605857-18.326391 40.932248-40.932248 40.932248H189.425234V843.464483c0 8.477069 6.872524 15.349593 15.349593 15.349593h471.879234v-238.938927c0-22.605857 18.326391-40.932248 40.932247-40.932248h237.271962v-628.824729zM295.072389 468.122933h-36.185131c0.982374 7.695263 1.309832 14.408151 1.309832 24.723077v82.521459h-19.320021c-10.314926 0-13.098319-0.163729-24.724101-1.146103v31.273261c5.403057-0.654916 14.409175-1.146103 24.396643-1.146103h71.715345c11.461029 0 18.010189 0.327458 25.541723 1.146103v-31.273261c-7.367805 0.818645-13.753235 1.146103-25.541723 1.146103h-18.502399v-82.521459c0-9.82374 0.328481-17.027815 1.309832-24.723077z m55.338353 136.225591h43.225477c1.146103-7.040347 2.455935-12.279674 6.221701-23.086811l24.559349-70.569242 24.39562 70.569242c3.76679 10.969842 5.076622 16.20917 6.058996 23.086811h43.388183c-0.982374-7.858992-1.309832-14.57188-1.309832-25.542746v-85.304852c0-12.443403 0.327458-18.828834 1.309832-25.377993h-32.255635c0.982374 7.531534 1.309832 13.753235 1.309832 25.377993v35.693944c0 3.929496 0.490164 16.20917 0.818645 21.284769 0.491187 8.677637 0.491187 8.677637 0.654916 11.133571-3.602038-12.770861-5.239328-18.665105-7.367805-24.559349l-15.881712-44.862767c-4.094248-11.624758-6.222725-18.828834-7.04137-24.069185h-28.488844c-0.818645 5.730515-2.619664 11.788487-7.040347 24.231891l-15.063067 43.552935c-0.163729 0.818645-5.075599 16.046464-5.566786 17.355273-1.801019 5.894244-1.801019 5.894244-2.619664 8.18645 0.982374-10.31595 1.63729-23.741727 1.63729-32.419364v-35.530214c0-11.2973 0.327458-18.501376 1.309832-25.377994h-32.255635c0.982374 7.367805 1.309832 14.244422 1.309832 25.377994v85.304851c0.001023 9.826809-0.490164 18.504446-1.308808 25.544793z m158.489664 0h35.693943c-1.146103-8.513908-1.309832-13.098319-1.309832-25.870204v-81.211627h39.624463c13.916964 0 19.48375 0.163729 27.180036 1.146103v-31.43699c-6.057973 0.818645-14.081717 1.146103-27.180036 1.146103h-49.77566c-11.2973 0-18.011212-0.163729-24.232914-0.491187 0.982374 5.730515 1.309832 12.93459 1.309831 23.904433v86.450954c0 11.462053-0.328481 18.503423-1.309831 26.362415zM494.318292 254.073882l-11.577686 11.577686c-3.996011 3.996011-10.475586 3.996011-14.471596 0l-89.724511-89.724511-11.577686-11.577686c-3.996011-3.996011-3.996011-10.475586 0-14.471596l11.577686-11.577686 89.724511-89.724511c3.996011-3.996011 10.475586-3.996011 14.471596 0l11.577686 11.577686c3.996011 3.996011 3.996011 10.475586 0 14.471596l-82.488712 82.488713 82.488712 82.488713c3.996011 3.996011 3.996011 10.474562 0 14.471596zM775.727497 164.348348l-11.577687 11.577686-89.72451 89.724511c-3.996011 3.996011-10.475586 3.996011-14.471597 0l-11.577686-11.577686c-3.996011-3.996011-3.996011-10.475586 0-14.471597l82.488713-82.488712-82.488713-82.488713c-3.996011-3.996011-3.996011-10.475586 0-14.471596l11.577686-11.577687c3.996011-3.996011 10.475586-3.996011 14.471597 0l89.72451 89.724511 11.577687 11.577687c3.996011 3.996011 3.996011 10.475586 0 14.471596zM620.61372 269.703861l-15.385409 5.599531c-5.310959 1.933025-11.18269-0.805342-13.115715-6.116301l-76.997652-211.550137c-1.933025-5.310959 0.805342-11.18269 6.116301-13.115715l15.385409-5.599532c5.310959-1.933025 11.18269 0.805342 13.115715 6.116301l76.997652 211.550137c1.933025 5.310959-0.805342 11.18269-6.116301 13.115716z"  horiz-adv-x="1024" />

    
    <glyph glyph-name="top" unicode="&#58918;" d="M640.048351-60.748317 381.167233-60.748317c-39.454594 0-71.559802 31.825846-71.559802 70.967308L309.60743 255.866714c0 0.353041-0.433882 0.789992-0.796132 0.789992L174.138062 256.656707c-34.404578 0-46.955428 20.131503-50.751894 28.804023-3.799536 8.650007-10.104125 31.487132 13.337773 56.45785l323.32485 344.238159c13.125949 13.989619 31.55774 22.001083 50.555419 22.001083 18.99461 0 37.417191-8.010441 50.558489-22.013363L884.488573 341.917556c23.442922-24.970718 17.134239-47.791469 13.337773-56.45785-3.802606-8.671497-16.359596-28.804023-50.754964-28.804023L712.411449 256.655683c-0.36225 0-0.793062-0.436952-0.793062-0.789992l0-245.647723C711.618387-28.922471 679.513178-60.748317 640.048351-60.748317L640.048351-60.748317zM219.304751 326.848349l89.506547-0.01228c39.466873 0 71.572082-31.844266 71.572082-70.970378l0-245.647723c0-0.349971 0.433882-0.789992 0.783853-0.789992l258.881119 0c0.360204 0 0.789992 0.440022 0.789992 0.789992L640.838344 255.866714c0 39.126112 32.105209 70.970378 71.572082 70.970378l89.488127 0L510.611373 636.993015 219.304751 326.848349 219.304751 326.848349zM858.494549 761.367697 162.730245 761.367697c-19.547195 0-35.391045 15.71082-35.391045 35.105542 0 19.36914 15.84385 35.087123 35.391045 35.087123l695.764304 0c19.539009 0 35.391045-15.71696 35.391045-35.087123C893.885594 777.078517 878.033557 761.367697 858.494549 761.367697L858.494549 761.367697zM858.494549 761.367697"  horiz-adv-x="1024" />

    
    <glyph glyph-name="css" unicode="&#58883;" d="M899.513379 680.836414l-24.028689 24.028689-167.794759 167.812414-0.03531 0.017655-13.594483 13.612138A32.962207 32.962207 0 0 1 670.631724 896H158.24331C137.286621 896 114.758621 879.827862 114.758621 844.340966V-92.689655c0-14.777379 14.848-29.166345 32.414896-33.703724 0.900414-0.247172 1.765517-0.582621 2.683586-0.759173 2.754207-0.54731 5.561379-0.847448 8.386207-0.847448h707.51338c2.824828 0 5.632 0.300138 8.386207 0.847448 0.918069 0.176552 1.783172 0.512 2.683586 0.759173 17.566897 4.537379 32.414897 18.926345 32.414896 33.703724V649.216c0 13.541517-1.641931 23.552-9.728 31.620414zM697.37931 833.05931L846.30069 684.137931H697.37931V833.05931zM158.24331-92.689655c-1.253517 0-2.383448 0.441379-3.495724 0.865103a8.121379 8.121379 0 0 0-4.67862 7.309242V172.137931h723.862068v-256.653241a8.121379 8.121379 0 0 0-4.67862-7.309242c-1.112276-0.423724-2.242207-0.865103-3.495724-0.865103H158.24331zM150.068966 207.448276V844.340966c0 3.831172 0.582621 16.34869 8.174344 16.348689h504.849656a27.188966 27.188966 0 0 1-1.024-6.903172V652.711724a52.541793 52.541793 0 0 1-35.310345 13.771035 17.655172 17.655172 0 1 1 0-35.310345c9.745655 0 17.655172-7.927172 17.655172-17.655173v-70.620689c0-21.186207 9.569103-40.006621 24.399448-52.965518a70.17931 70.17931 0 0 1-24.399448-52.965517v-70.620689c0-9.728-7.909517-17.655172-17.655172-17.655173a17.655172 17.655172 0 1 1 0-35.310345c29.201655 0 52.965517 23.763862 52.965517 52.965518v70.620689c0 19.473655 15.83669 35.310345 35.310345 35.310345a17.655172 17.655172 0 1 1 0 35.310345c-19.473655 0-35.310345 15.83669-35.310345 35.310345v70.620689a52.612414 52.612414 0 0 1-13.771035 35.310345h201.074759c2.383448 0 4.678621 0.441379 6.903172 1.024l0.017656-0.635586V207.448276H150.068966zM353.703724 84.674207c4.254897 5.402483 9.092414 9.198345 14.477242 11.458207s11.069793 3.372138 17.019586 3.372138c5.314207 0 10.416552-1.05931 15.324689-3.142621s9.374897-5.473103 13.400276-10.134069l20.038621 17.867035c-6.603034 6.426483-14.088828 11.264-22.439724 14.477241s-17.37269 4.819862-27.030069 4.819862c-10.469517 0-20.197517-1.959724-29.201655-5.914483s-16.86069-9.69269-23.534345-17.266758-11.917241-17.019586-15.695448-28.354207c-3.778207-11.352276-5.66731-24.505379-5.667311-39.459311s1.889103-28.16 5.667311-39.582896c3.778207-11.422897 9.021793-20.921379 15.695448-28.477793s14.477241-13.27669 23.410758-17.143173 18.714483-5.790897 29.325242-5.790896c9.657379 0 18.679172 1.606621 27.030069 4.819862s15.83669 8.050759 22.439724 14.477241l-20.038621 17.619862c-4.184276-4.678621-8.809931-8.050759-13.876965-10.134069s-10.504828-3.142621-16.295724-3.14262-11.316966 1.235862-16.542897 3.742896-9.904552 6.426483-14.000552 11.828966-7.326897 12.340966-9.657379 20.886069-3.584 18.820414-3.742897 30.896551c0.158897 12.393931 1.447724 22.845793 3.866483 31.373242s5.773241 15.501241 10.028138 20.903724zM556.702897 29.766621c-5.543724 4.025379-11.546483 7.450483-17.990621 10.257655s-12.393931 5.702621-17.867035 8.686345-10.045793 6.426483-13.753379 10.381241-5.543724 9.145379-5.543724 15.571862c0 2.577655 0.635586 5.278897 1.924414 8.086069s3.054345 5.349517 5.314207 7.609379 4.819862 4.13131 7.732965 5.667311 5.949793 2.454069 9.18069 2.771862c5.790897 0.47669 10.540138 0.564966 14.247724 0.247172s6.673655-0.882759 8.933517-1.694896 3.990069-1.606621 5.190621-2.418759 2.295172-1.447724 3.266207-1.924414c0.158897 0.158897 0.635586 0.971034 1.447724 2.418759s1.783172 3.266207 2.895448 5.437793l3.619311 6.991448a149.892414 149.892414 0 0 1 3.372137 6.885518c-4.678621 3.054345-10.769655 5.278897-18.343724 6.638344s-15.059862 2.048-22.439724 2.048c-7.238621 0-14.124138-1.112276-20.638896-3.372138s-12.217379-5.526069-17.143173-9.780965-8.809931-9.445517-11.705379-15.571862-4.343172-13.117793-4.343173-20.992c0-8.686345 1.836138-15.924966 5.543725-21.715862s8.368552-10.822621 14.000551-15.077517 11.670069-7.962483 18.096552-11.105104 12.429241-6.267586 17.990621-9.410207 10.169379-6.638345 13.876965-10.504827 5.543724-8.527448 5.543724-14.000552c0-9.021793-2.612966-15.819034-7.838896-20.391724s-12.76469-6.885517-22.56331-6.885518c-3.230897 0-6.673655 0.335448-10.381242 0.971035s-7.397517 1.483034-11.105103 2.542345-7.273931 2.171586-10.734345 3.372138-6.302897 2.454069-8.562759 3.742896l-5.067034-20.762482c2.736552-2.418759 6.002759-4.466759 9.780965-6.161656s7.750621-3.019034 11.952552-3.990069 8.333241-1.659586 12.429241-2.048 8.086069-0.600276 11.952552-0.600275c9.021793 0 17.054897 1.359448 24.134621 4.096s13.029517 6.391172 17.867034 10.981517 8.562759 9.904552 11.22869 15.924965 3.990069 12.270345 3.990069 18.714483c0 9.498483-1.836138 17.266759-5.543724 23.287172s-8.386207 11.052138-13.947586 15.077518zM687.527724 29.766621c-5.543724 4.025379-11.546483 7.450483-17.990621 10.257655s-12.393931 5.702621-17.867034 8.686345-10.045793 6.426483-13.753379 10.381241-5.543724 9.145379-5.543724 15.571862c0 2.577655 0.635586 5.278897 1.924413 8.086069s3.054345 5.349517 5.314207 7.609379 4.819862 4.13131 7.732966 5.667311 5.949793 2.454069 9.180689 2.771862c5.790897 0.47669 10.540138 0.564966 14.247725 0.247172s6.673655-0.882759 8.933517-1.694896 3.990069-1.606621 5.19062-2.418759 2.295172-1.447724 3.266207-1.924414c0.158897 0.158897 0.635586 0.971034 1.447724 2.418759s1.783172 3.266207 2.895449 5.437793l3.61931 6.991448a149.892414 149.892414 0 0 1 3.372138 6.885518c-4.678621 3.054345-10.769655 5.278897-18.343724 6.638344s-15.059862 2.048-22.439724 2.048c-7.238621 0-14.124138-1.112276-20.638897-3.372138s-12.217379-5.526069-17.143172-9.780965-8.809931-9.445517-11.70538-15.571862-4.343172-13.117793-4.343172-20.992c0-8.686345 1.836138-15.924966 5.543724-21.715862s8.368552-10.822621 14.000552-15.077517 11.670069-7.962483 18.096552-11.105104 12.429241-6.267586 17.99062-9.410207 10.169379-6.638345 13.876966-10.504827 5.543724-8.527448 5.543724-14.000552c0-9.021793-2.612966-15.819034-7.838897-20.391724s-12.76469-6.885517-22.56331-6.885518c-3.230897 0-6.673655 0.335448-10.381241 0.971035s-7.397517 1.483034-11.105104 2.542345-7.273931 2.171586-10.734345 3.372138-6.302897 2.454069-8.562758 3.742896l-5.067035-20.762482c2.736552-2.418759 6.002759-4.466759 9.780966-6.161656s7.750621-3.019034 11.952552-3.990069 8.333241-1.659586 12.429241-2.048 8.086069-0.600276 11.952552-0.600275c9.021793 0 17.054897 1.359448 24.13462 4.096s13.029517 6.391172 17.867035 10.981517 8.562759 9.904552 11.22869 15.924965 3.990069 12.270345 3.990068 18.714483c0 9.498483-1.836138 17.266759-5.543724 23.287172s-8.386207 11.052138-13.947586 15.077518zM361.931034 542.896552v70.620689c0 9.728 7.909517 17.655172 17.655173 17.655173a17.655172 17.655172 0 1 1 0 35.310345c-29.201655 0-52.965517-23.763862-52.965517-52.965518v-70.620689c0-19.473655-15.83669-35.310345-35.310345-35.310345a17.655172 17.655172 0 1 1 0-35.310345c19.473655 0 35.310345-15.83669 35.310345-35.310345v-70.620689c0-29.201655 23.763862-52.965517 52.965517-52.965518a17.655172 17.655172 0 1 1 0 35.310345c-9.745655 0-17.655172 7.927172-17.655173 17.655173v70.620689c0 21.186207-9.569103 40.006621-24.399448 52.965517a70.17931 70.17931 0 0 1 24.399448 52.965518z"  horiz-adv-x="1024" />

    
    <glyph glyph-name="vue" unicode="&#58880;" d="M850.15 622.53L546.55 805.22a65.998 65.998 0 0 1-67.66 0.23L174.1 624.78a65.955 65.955 0 0 1-32.33-56.54l-1.21-367.27a65.972 65.972 0 0 1 31.96-56.74l303.6-182.69c20.8-12.52 46.78-12.6 67.67-0.23l304.78 180.66a65.958 65.958 0 0 1 32.33 56.54l1.21 367.27c0.08 23.22-12.07 44.77-31.96 56.75z m-28.6-418.18c-0.02-6.05-3.2-11.65-8.38-14.78l-294.1-177.25a17.304 17.304 0 0 0-17.96 0.06L208.18 191.59a17.315 17.315 0 0 0-8.27 14.83l1.17 358.02c0.02 6.05 3.2 11.64 8.38 14.77l294.08 177.25a17.296 17.296 0 0 0 17.98-0.06l292.93-179.21c5.16-3.15 8.29-8.78 8.27-14.83l-1.17-358.01zM511.21 277.3l145.15 254.52h-63.58l-81.57-148.66-81.58 148.66h-63.57zM511.31 93.1l253.3 438.72H653.67L511.31 275.58 368.96 531.82H258.02z"  horiz-adv-x="1024" />

    
    <glyph glyph-name="js" unicode="&#59516;" d="M707.072 247.552c-15.36-8.704-36.864-13.312-63.488-13.312-30.208 0-52.224 5.632-66.56 15.872-15.872 11.776-25.6 31.744-29.696 59.392h-59.392c2.56-46.592 19.456-80.384 50.176-101.888 25.088-17.408 60.416-26.112 105.472-26.112 46.592 0 82.944 9.728 108.544 28.16 25.6 18.944 38.4 45.056 38.4 77.824 0 33.792-15.872 59.904-47.616 78.848-14.336 8.192-46.08 20.48-95.744 35.84-33.792 10.752-54.784 18.432-62.464 22.528-17.408 9.216-25.6 22.016-25.6 37.376 0 17.408 7.168 30.208 22.528 37.888 12.288 6.656 29.696 9.728 52.736 9.728 26.624 0 47.104-4.608 60.416-14.848 13.312-9.728 23.04-26.112 28.16-48.64h59.392c-3.584 39.936-18.432 69.632-44.032 88.576-24.064 17.92-57.856 26.624-100.864 26.624-39.424 0-71.68-8.704-97.28-26.624-27.648-18.432-40.96-44.032-40.96-76.288s13.824-56.832 41.984-73.728c10.752-6.144 38.912-16.384 83.968-30.72 40.448-12.288 64-20.48 71.168-24.064 22.528-11.264 34.304-26.624 34.304-46.08 0-15.36-8.192-27.136-23.552-36.352zM884.864 672.16L557.984 861.44a101.088 101.088 0 0 1-101.056 0L130.24 672.128a101.12 101.12 0 0 1-50.24-87.2v-401.312c0-36.384 19.712-70.016 51.424-87.872l117.792-66.176c1.28-0.704 2.688-0.768 4.032-1.312 15.648-7.616 34.272-11.52 57.472-11.52 42.496 0 75.36 15.52 94.816 37.024 17.408 20.48 26.112 51.2 26.112 93.184V554.24h-59.904v-405.248c0-26.112-4.608-45.056-13.824-56.832-9.216-11.776-24.064-17.92-44.032-17.92-2.688 0-18.656 4.096-31.2 9.408l-0.16 0.032c-0.736 0.48-1.184 1.248-1.952 1.664l-117.76 66.176A36.96 36.96 0 0 0 144 183.648v401.28c0 13.088 7.04 25.28 18.336 31.84l326.656 189.28a36.8 36.8 0 0 0 36.896 0l326.88-189.28c11.328-6.592 18.368-18.784 18.368-31.872V182.4c0-12.864-6.88-24.96-17.92-31.552L537.472-37.824a36.8 36.8 0 0 0-36.896-0.512l-67.168 37.76a32 32 0 1 1-31.392-55.808l67.2-37.76a100.832 100.832 0 0 1 101.056 1.376l315.744 188.672a101.216 101.216 0 0 1 49.088 86.496V584.928a100.992 100.992 0 0 1-50.24 87.232z"  horiz-adv-x="1024" />

    
    <glyph glyph-name="shouye" unicode="&#58966;" d="M511.0528 895.232v-54.3744a104.832 104.832 0 0 0 67.2512-24.704c3.6352-4.6848 7.8848-8.8832 12.672-12.4416l366.5664-389.632 1.1008-1.152a32.7424 32.7424 0 0 0-1.6128-45.5168 29.3632 29.3632 0 0 0-20.5312-7.5008H904.704c-30.7968 0-55.7568-24.3456-55.7568-54.4v-322.56c0-30.7712-24.2688-55.808-54.1184-55.808h-178.4832V225.6896c0 14.4128-5.888 28.2368-16.3328 38.4512a56.4992 56.4992 0 0 1-39.424 15.9232h-112.9472c-14.7968 0-28.9792-5.7344-39.4496-15.9232a53.7088 53.7088 0 0 1-16.3328-38.4512v-298.5472H216.7296c-29.8496 0-54.1184 25.0368-54.1184 55.808v322.56c0 30.0544-24.96 54.4-55.7568 54.4h-20.9152a31.5392 31.5392 0 0 0-21.9904 9.728 29.952 29.952 0 0 0-8.2432 22.144 28.8 28.8 0 0 0 8.0896 21.1456l1.1008 1.152L436.0192 808.192a102.5024 102.5024 0 0 0 75.008 32.64V895.232z m0 0a159.232 159.232 0 0 1-116.0192-49.9712L24.0128 450.816a82.0992 82.0992 0 0 1-23.9104-59.136c-0.4096-22.528 8.4224-44.288 24.5248-60.4928 16.128-16.1792 38.1696-25.4208 61.312-25.7024h20.6848v-322.56c0-60.672 49.3568-110.1824 109.8752-110.1824h194.4832c9.9072-0.0256 19.4048 3.84 26.3168 10.752 6.912 6.9376 10.624 16.3072 10.3424 25.9584V225.6896h113.0496v-316.2112c-0.3072-9.6512 3.4304-19.0208 10.3424-25.9328 6.912-6.912 16.384-10.8032 26.2912-10.7776h197.504c60.5184 0 109.8752 49.4848 109.8752 110.1824v322.56h31.8464a85.3504 85.3504 0 0 1 60.5184 23.936 85.9392 85.9392 0 0 1 1.6128 121.344L627.5584 845.2608a12.416 12.416 0 0 0-6.1952 6.4768A161.28 161.28 0 0 1 511.232 895.232h-0.1536z"  horiz-adv-x="1024" />

    
    <glyph glyph-name="sousuo" unicode="&#58891;" d="M446.112323 718.454949c137.567677-0.219798 252.612525-104.59798 266.162424-241.493333 13.562828-136.895354-78.778182-261.818182-213.617777-289.008485-134.852525-27.203232-268.386263 52.156768-308.945455 183.608889s25.018182 272.252121 151.738182 325.779394A267.235556 267.235556 0 0 0 446.112323 718.454949m0 62.060607c-182.794343 0-330.989899-148.195556-330.989899-330.989899s148.195556-330.989899 330.989899-330.989899 330.989899 148.195556 330.989899 330.989899-148.195556 330.989899-330.989899 330.989899z m431.321212-793.341415a30.849293 30.849293 0 0 0-21.94101 9.102223l-157.220202 157.220202c-11.752727 12.179394-11.584646 31.534545 0.37495 43.50707 11.972525 11.972525 31.327677 12.140606 43.494141 0.37495l157.220202-157.220202a31.036768 31.036768 0 0 0 6.723232-33.810101 31.004444 31.004444 0 0 0-28.651313-19.174142z m0 0"  horiz-adv-x="1024" />

    


  </font>
</defs>
</svg>
